<?xml version="1.0" encoding="UTF-8" standalone="no"?>
<svg width="331.964mm" height="206.022mm"
 xmlns="http://www.w3.org/2000/svg" xmlns:xlink="http://www.w3.org/1999/xlink"  version="1.2" baseProfile="tiny">
<title>Qt Svg Document</title>
<desc>Generated with Qt</desc>
<defs>
</defs>
<g fill="none" stroke="black" stroke-width="1" fill-rule="evenodd" stroke-linecap="square" stroke-linejoin="bevel" >

<g fill="none" stroke="#0000ff" stroke-opacity="1" stroke-width="1" stroke-linecap="square" stroke-linejoin="bevel" transform="matrix(1,0,0,1,0,0)"
font-family="Ubuntu" font-size="9" font-weight="400" font-style="normal" 
>
<polyline fill="none" vector-effect="none" points="471,27 721,210 " />
</g>

<g fill="#0000ff" fill-opacity="1" stroke="#0000ff" stroke-opacity="1" stroke-width="1" stroke-linecap="square" stroke-linejoin="bevel" transform="matrix(1,0,0,1,0,0)"
font-family="Ubuntu" font-size="9" font-weight="400" font-style="normal" 
>
<path vector-effect="none" fill-rule="evenodd" d="M340,293 C340,294.657 338.657,296 337,296 C335.343,296 334,294.657 334,293 C334,291.343 335.343,290 337,290 C338.657,290 340,291.343 340,293 "/>
</g>

<g fill="#0000ff" fill-opacity="1" stroke="#0000ff" stroke-opacity="1" stroke-width="1" stroke-linecap="square" stroke-linejoin="bevel" transform="matrix(1,0,0,1,0,0)"
font-family="Ubuntu" font-size="9" font-weight="400" font-style="normal" 
>
<path vector-effect="none" fill-rule="evenodd" d="M341,435 C341,436.657 339.657,438 338,438 C336.343,438 335,436.657 335,435 C335,433.343 336.343,432 338,432 C339.657,432 341,433.343 341,435 "/>
</g>

<g fill="none" stroke="#0000ff" stroke-opacity="1" stroke-width="1" stroke-linecap="square" stroke-linejoin="bevel" transform="matrix(1,0,0,1,0,0)"
font-family="Ubuntu" font-size="9" font-weight="400" font-style="normal" 
>
<path vector-effect="none" fill-rule="evenodd" d="M471,293.5 C471,440.132 352.132,559 205.5,559 C58.8684,559 -60,440.132 -60,293.5 C-60,146.868 58.8684,28 205.5,28 C352.132,28 471,146.868 471,293.5 "/>
</g>

<g fill="#0000ff" fill-opacity="1" stroke="#0000ff" stroke-opacity="1" stroke-width="1" stroke-linecap="square" stroke-linejoin="bevel" transform="matrix(1,0,0,1,0,0)"
font-family="Ubuntu" font-size="9" font-weight="400" font-style="normal" 
>
<path vector-effect="none" fill-rule="evenodd" d="M629,507 C629,508.657 627.657,510 626,510 C624.343,510 623,508.657 623,507 C623,505.343 624.343,504 626,504 C627.657,504 629,505.343 629,507 "/>
</g>

<g fill="none" stroke="#0000ff" stroke-opacity="1" stroke-width="1" stroke-linecap="square" stroke-linejoin="bevel" transform="matrix(1,0,0,1,0,0)"
font-family="Ubuntu" font-size="9" font-weight="400" font-style="normal" 
>
<polyline fill="none" vector-effect="none" points="470,292 471,27 " />
</g>

<g fill="none" stroke="#0000ff" stroke-opacity="1" stroke-width="1" stroke-linecap="square" stroke-linejoin="bevel" transform="matrix(1,0,0,1,0,0)"
font-family="Ubuntu" font-size="9" font-weight="400" font-style="normal" 
>
<polyline fill="none" vector-effect="none" points="470,292 721,210 " />
</g>

<g fill="none" stroke="#0000ff" stroke-opacity="1" stroke-width="1" stroke-linecap="square" stroke-linejoin="bevel" transform="matrix(1,0,0,1,0,0)"
font-family="Ubuntu" font-size="9" font-weight="400" font-style="normal" 
>
<polyline fill="none" vector-effect="none" points="462,1 651,584 " />
</g>

<g fill="none" stroke="#0000ff" stroke-opacity="1" stroke-width="1" stroke-linecap="square" stroke-linejoin="bevel" transform="matrix(1,0,0,1,0,0)"
font-family="Ubuntu" font-size="9" font-weight="400" font-style="normal" 
>
<polyline fill="none" vector-effect="none" points="626,507 721,210 " />
</g>

<g fill="none" stroke="#0000ff" stroke-opacity="1" stroke-width="1" stroke-linecap="square" stroke-linejoin="bevel" transform="matrix(1,0,0,1,0,0)"
font-family="Ubuntu" font-size="9" font-weight="400" font-style="normal" 
>
<polyline fill="none" vector-effect="none" points="204,293 735,292 " />
</g>

<g fill="#0000ff" fill-opacity="1" stroke="#0000ff" stroke-opacity="1" stroke-width="1" stroke-linecap="square" stroke-linejoin="bevel" transform="matrix(1,0,0,1,0,0)"
font-family="Ubuntu" font-size="9" font-weight="400" font-style="normal" 
>
<path vector-effect="none" fill-rule="evenodd" d="M317,507 C317,508.657 315.657,510 314,510 C312.343,510 311,508.657 311,507 C311,505.343 312.343,504 314,504 C315.657,504 317,505.343 317,507 "/>
</g>

<g fill="none" stroke="#0000ff" stroke-opacity="1" stroke-width="1" stroke-linecap="square" stroke-linejoin="bevel" transform="matrix(1,0,0,1,0,0)"
font-family="Ubuntu" font-size="9" font-weight="400" font-style="normal" 
>
<polyline fill="none" vector-effect="none" points="470,292 314,507 " />
</g>

<g fill="none" stroke="#0000ff" stroke-opacity="1" stroke-width="1" stroke-linecap="square" stroke-linejoin="bevel" transform="matrix(1,0,0,1,0,0)"
font-family="Ubuntu" font-size="9" font-weight="400" font-style="normal" 
>
<polyline fill="none" vector-effect="none" points="471,27 314,507 " />
</g>

<g fill="#0000ff" fill-opacity="1" stroke="#0000ff" stroke-opacity="1" stroke-width="1" stroke-linecap="square" stroke-linejoin="bevel" transform="matrix(1,0,0,1,0,0)"
font-family="Ubuntu" font-size="9" font-weight="400" font-style="normal" 
>
<path vector-effect="none" fill-rule="evenodd" d="M725,210 C725,211.657 723.657,213 722,213 C720.343,213 719,211.657 719,210 C719,208.343 720.343,207 722,207 C723.657,207 725,208.343 725,210 "/>
</g>

<g fill="none" stroke="#0000ff" stroke-opacity="1" stroke-width="1" stroke-linecap="square" stroke-linejoin="bevel" transform="matrix(1,0,0,1,0,0)"
font-family="Ubuntu" font-size="9" font-weight="400" font-style="normal" 
>
<polyline fill="none" vector-effect="none" points="471,27 469,558 " />
</g>

<g fill="none" stroke="#0000ff" stroke-opacity="1" stroke-width="1" stroke-linecap="square" stroke-linejoin="bevel" transform="matrix(1,0,0,1,0,0)"
font-family="Ubuntu" font-size="9" font-weight="400" font-style="normal" 
>
<polyline fill="none" vector-effect="none" points="470,292 218,210 " />
</g>

<g fill="none" stroke="#0000ff" stroke-opacity="1" stroke-width="1" stroke-linecap="square" stroke-linejoin="bevel" transform="matrix(1,0,0,1,0,0)"
font-family="Ubuntu" font-size="9" font-weight="400" font-style="normal" 
>
<path vector-effect="none" fill-rule="evenodd" d="M939,507 C939,679.313 799.089,819 626.5,819 C453.911,819 314,679.313 314,507 C314,334.687 453.911,195 626.5,195 C799.089,195 939,334.687 939,507 "/>
</g>

<g fill="none" stroke="#0000ff" stroke-opacity="1" stroke-width="1" stroke-linecap="square" stroke-linejoin="bevel" transform="matrix(1,0,0,1,0,0)"
font-family="Ubuntu" font-size="9" font-weight="400" font-style="normal" 
>
<polyline fill="none" vector-effect="none" points="471,1 468,584 " />
</g>

<g fill="#0000ff" fill-opacity="1" stroke="#0000ff" stroke-opacity="1" stroke-width="1" stroke-linecap="square" stroke-linejoin="bevel" transform="matrix(1,0,0,1,0,0)"
font-family="Ubuntu" font-size="9" font-weight="400" font-style="normal" 
>
<path vector-effect="none" fill-rule="evenodd" d="M606,435 C606,436.657 604.657,438 603,438 C601.343,438 600,436.657 600,435 C600,433.343 601.343,432 603,432 C604.657,432 606,433.343 606,435 "/>
</g>

<g fill="none" stroke="#0000ff" stroke-opacity="1" stroke-width="1" stroke-linecap="square" stroke-linejoin="bevel" transform="matrix(1,0,0,1,0,0)"
font-family="Ubuntu" font-size="9" font-weight="400" font-style="normal" 
>
<polyline fill="none" vector-effect="none" points="218,210 626,507 " />
</g>

<g fill="#0000ff" fill-opacity="1" stroke="#0000ff" stroke-opacity="1" stroke-width="1" stroke-linecap="square" stroke-linejoin="bevel" transform="matrix(1,0,0,1,0,0)"
font-family="Ubuntu" font-size="9" font-weight="400" font-style="normal" 
>
<path vector-effect="none" fill-rule="evenodd" d="M221,210 C221,211.657 219.657,213 218,213 C216.343,213 215,211.657 215,210 C215,208.343 216.343,207 218,207 C219.657,207 221,208.343 221,210 "/>
</g>

<g fill="none" stroke="#0000ff" stroke-opacity="1" stroke-width="1" stroke-linecap="square" stroke-linejoin="bevel" transform="matrix(1,0,0,1,0,0)"
font-family="Ubuntu" font-size="9" font-weight="400" font-style="normal" 
>
<polyline fill="none" vector-effect="none" points="336,1 338,584 " />
</g>

<g fill="#0000ff" fill-opacity="1" stroke="#0000ff" stroke-opacity="1" stroke-width="1" stroke-linecap="square" stroke-linejoin="bevel" transform="matrix(1,0,0,1,0,0)"
font-family="Ubuntu" font-size="9" font-weight="400" font-style="normal" 
>
<path vector-effect="none" fill-rule="evenodd" d="M341,523 C341,524.657 339.657,526 338,526 C336.343,526 335,524.657 335,523 C335,521.343 336.343,520 338,520 C339.657,520 341,521.343 341,523 "/>
</g>

<g fill="none" stroke="#0000ff" stroke-opacity="1" stroke-width="1" stroke-linecap="square" stroke-linejoin="bevel" transform="matrix(1,0,0,1,0,0)"
font-family="Ubuntu" font-size="9" font-weight="400" font-style="normal" 
>
<polyline fill="none" vector-effect="none" points="721,210 218,210 " />
</g>

<g fill="none" stroke="#0000ff" stroke-opacity="1" stroke-width="1" stroke-linecap="square" stroke-linejoin="bevel" transform="matrix(1,0,0,1,0,0)"
font-family="Ubuntu" font-size="9" font-weight="400" font-style="normal" 
>
<polyline fill="none" vector-effect="none" points="314,507 721,210 " />
</g>

<g fill="#0000ff" fill-opacity="1" stroke="#0000ff" stroke-opacity="1" stroke-width="1" stroke-linecap="square" stroke-linejoin="bevel" transform="matrix(1,0,0,1,0,0)"
font-family="Ubuntu" font-size="9" font-weight="400" font-style="normal" 
>
<path vector-effect="none" fill-rule="evenodd" d="M47,294 C47,295.657 45.6569,297 44,297 C42.3431,297 41,295.657 41,294 C41,292.343 42.3431,291 44,291 C45.6569,291 47,292.343 47,294 "/>
</g>

<g fill="#0000ff" fill-opacity="1" stroke="#0000ff" stroke-opacity="1" stroke-width="1" stroke-linecap="square" stroke-linejoin="bevel" transform="matrix(1,0,0,1,0,0)"
font-family="Ubuntu" font-size="9" font-weight="400" font-style="normal" 
>
<path vector-effect="none" fill-rule="evenodd" d="M474,28 C474,29.6569 472.657,31 471,31 C469.343,31 468,29.6569 468,28 C468,26.3431 469.343,25 471,25 C472.657,25 474,26.3431 474,28 "/>
</g>

<g fill="none" stroke="#0000ff" stroke-opacity="1" stroke-width="1" stroke-linecap="square" stroke-linejoin="bevel" transform="matrix(1,0,0,1,0,0)"
font-family="Ubuntu" font-size="9" font-weight="400" font-style="normal" 
>
<polyline fill="none" vector-effect="none" points="601,1 603,584 " />
</g>

<g fill="none" stroke="#0000ff" stroke-opacity="1" stroke-width="1" stroke-linecap="square" stroke-linejoin="bevel" transform="matrix(1,0,0,1,0,0)"
font-family="Ubuntu" font-size="9" font-weight="400" font-style="normal" 
>
<polyline fill="none" vector-effect="none" points="457,1 747,584 " />
</g>

<g fill="none" stroke="#0000ff" stroke-opacity="1" stroke-width="1" stroke-linecap="square" stroke-linejoin="bevel" transform="matrix(1,0,0,1,0,0)"
font-family="Ubuntu" font-size="9" font-weight="400" font-style="normal" 
>
<path vector-effect="none" fill-rule="evenodd" d="M736,293 C736,366.454 676.23,426 602.5,426 C528.77,426 469,366.454 469,293 C469,219.546 528.77,160 602.5,160 C676.23,160 736,219.546 736,293 "/>
</g>

<g fill="#0000ff" fill-opacity="1" stroke="#0000ff" stroke-opacity="1" stroke-width="1" stroke-linecap="square" stroke-linejoin="bevel" transform="matrix(1,0,0,1,0,0)"
font-family="Ubuntu" font-size="9" font-weight="400" font-style="normal" 
>
<path vector-effect="none" fill-rule="evenodd" d="M738,292 C738,293.657 736.657,295 735,295 C733.343,295 732,293.657 732,292 C732,290.343 733.343,289 735,289 C736.657,289 738,290.343 738,292 "/>
</g>

<g fill="none" stroke="#0000ff" stroke-opacity="1" stroke-width="1" stroke-linecap="square" stroke-linejoin="bevel" transform="matrix(1,0,0,1,0,0)"
font-family="Ubuntu" font-size="9" font-weight="400" font-style="normal" 
>
<polyline fill="none" vector-effect="none" points="0,294 941,291 " />
</g>

<g fill="none" stroke="#0000ff" stroke-opacity="1" stroke-width="1" stroke-linecap="square" stroke-linejoin="bevel" transform="matrix(1,0,0,1,0,0)"
font-family="Ubuntu" font-size="9" font-weight="400" font-style="normal" 
>
<polyline fill="none" vector-effect="none" points="337,434 602,435 " />
</g>

<g fill="#0000ff" fill-opacity="1" stroke="#0000ff" stroke-opacity="1" stroke-width="1" stroke-linecap="square" stroke-linejoin="bevel" transform="matrix(1,0,0,1,0,0)"
font-family="Ubuntu" font-size="9" font-weight="400" font-style="normal" 
>
<path vector-effect="none" fill-rule="evenodd" d="M208,294 C208,295.657 206.657,297 205,297 C203.343,297 202,295.657 202,294 C202,292.343 203.343,291 205,291 C206.657,291 208,292.343 208,294 "/>
</g>

<g fill="none" stroke="#0000ff" stroke-opacity="1" stroke-width="1" stroke-linecap="square" stroke-linejoin="bevel" transform="matrix(1,0,0,1,0,0)"
font-family="Ubuntu" font-size="9" font-weight="400" font-style="normal" 
>
<path vector-effect="none" fill-rule="evenodd" d="M1001,292.5 C1001,439.132 881.908,558 735,558 C588.092,558 469,439.132 469,292.5 C469,145.868 588.092,27 735,27 C881.908,27 1001,145.868 1001,292.5 "/>
</g>

<g fill="#0000ff" fill-opacity="1" stroke="#0000ff" stroke-opacity="1" stroke-width="1" stroke-linecap="square" stroke-linejoin="bevel" transform="matrix(1,0,0,1,0,0)"
font-family="Ubuntu" font-size="9" font-weight="400" font-style="normal" 
>
<path vector-effect="none" fill-rule="evenodd" d="M606,522 C606,523.657 604.657,525 603,525 C601.343,525 600,523.657 600,522 C600,520.343 601.343,519 603,519 C604.657,519 606,520.343 606,522 "/>
</g>

<g fill="#0000ff" fill-opacity="1" stroke="#0000ff" stroke-opacity="1" stroke-width="1" stroke-linecap="square" stroke-linejoin="bevel" transform="matrix(1,0,0,1,0,0)"
font-family="Ubuntu" font-size="9" font-weight="400" font-style="normal" 
>
<path vector-effect="none" fill-rule="evenodd" d="M339,-378 C339,-376.343 337.657,-375 336,-375 C334.343,-375 333,-376.343 333,-378 C333,-379.657 334.343,-381 336,-381 C337.657,-381 339,-379.657 339,-378 "/>
</g>

<g fill="#0000ff" fill-opacity="1" stroke="#0000ff" stroke-opacity="1" stroke-width="1" stroke-linecap="square" stroke-linejoin="bevel" transform="matrix(1,0,0,1,0,0)"
font-family="Ubuntu" font-size="9" font-weight="400" font-style="normal" 
>
<path vector-effect="none" fill-rule="evenodd" d="M472,558 C472,559.657 470.657,561 469,561 C467.343,561 466,559.657 466,558 C466,556.343 467.343,555 469,555 C470.657,555 472,556.343 472,558 "/>
</g>

<g fill="#0000ff" fill-opacity="1" stroke="#0000ff" stroke-opacity="1" stroke-width="1" stroke-linecap="square" stroke-linejoin="bevel" transform="matrix(1,0,0,1,0,0)"
font-family="Ubuntu" font-size="9" font-weight="400" font-style="normal" 
>
<path vector-effect="none" fill-rule="evenodd" d="M473,293 C473,294.657 471.657,296 470,296 C468.343,296 467,294.657 467,293 C467,291.343 468.343,290 470,290 C471.657,290 473,291.343 473,293 "/>
</g>

<g fill="none" stroke="#0000ff" stroke-opacity="1" stroke-width="1" stroke-linecap="square" stroke-linejoin="bevel" transform="matrix(1,0,0,1,0,0)"
font-family="Ubuntu" font-size="9" font-weight="400" font-style="normal" 
>
<polyline fill="none" vector-effect="none" points="218,210 471,27 " />
</g>

<g fill="#0000ff" fill-opacity="1" stroke="#0000ff" stroke-opacity="1" stroke-width="1" stroke-linecap="square" stroke-linejoin="bevel" transform="matrix(1,0,0,1,0,0)"
font-family="Ubuntu" font-size="9" font-weight="400" font-style="normal" 
>
<path vector-effect="none" fill-rule="evenodd" d="M547,174 C547,175.657 545.657,177 544,177 C542.343,177 541,175.657 541,174 C541,172.343 542.343,171 544,171 C545.657,171 547,172.343 547,174 "/>
</g>

<g fill="none" stroke="#0000ff" stroke-opacity="1" stroke-width="1" stroke-linecap="square" stroke-linejoin="bevel" transform="matrix(1,0,0,1,0,0)"
font-family="Ubuntu" font-size="9" font-weight="400" font-style="normal" 
>
<polyline fill="none" vector-effect="none" points="626,507 471,27 " />
</g>

<g fill="none" stroke="#0000ff" stroke-opacity="1" stroke-width="1" stroke-linecap="square" stroke-linejoin="bevel" transform="matrix(1,0,0,1,0,0)"
font-family="Ubuntu" font-size="9" font-weight="400" font-style="normal" 
>
<path vector-effect="none" fill-rule="evenodd" d="M627,507 C627,679.313 487.089,819 314.5,819 C141.911,819 2,679.313 2,507 C2,334.687 141.911,195 314.5,195 C487.089,195 627,334.687 627,507 "/>
</g>

<g fill="none" stroke="#0000ff" stroke-opacity="1" stroke-width="1" stroke-linecap="square" stroke-linejoin="bevel" transform="matrix(1,0,0,1,0,0)"
font-family="Ubuntu" font-size="9" font-weight="400" font-style="normal" 
>
<polyline fill="none" vector-effect="none" points="314,507 626,507 " />
</g>

<g fill="#0000ff" fill-opacity="1" stroke="#0000ff" stroke-opacity="1" stroke-width="1" stroke-linecap="square" stroke-linejoin="bevel" transform="matrix(1,0,0,1,0,0)"
font-family="Ubuntu" font-size="9" font-weight="400" font-style="normal" 
>
<path vector-effect="none" fill-rule="evenodd" d="M604,-380 C604,-378.343 602.657,-377 601,-377 C599.343,-377 598,-378.343 598,-380 C598,-381.657 599.343,-383 601,-383 C602.657,-383 604,-381.657 604,-380 "/>
</g>

<g fill="none" stroke="#0000ff" stroke-opacity="1" stroke-width="1" stroke-linecap="square" stroke-linejoin="bevel" transform="matrix(1,0,0,1,0,0)"
font-family="Ubuntu" font-size="9" font-weight="400" font-style="normal" 
>
<polyline fill="none" vector-effect="none" points="314,507 218,210 " />
</g>

<g fill="none" stroke="#0000ff" stroke-opacity="1" stroke-width="1" stroke-linecap="square" stroke-linejoin="bevel" transform="matrix(1,0,0,1,0,0)"
font-family="Ubuntu" font-size="9" font-weight="400" font-style="normal" 
>
<polyline fill="none" vector-effect="none" points="479,1 288,584 " />
</g>

<g fill="none" stroke="#0000ff" stroke-opacity="1" stroke-width="1" stroke-linecap="square" stroke-linejoin="bevel" transform="matrix(1,0,0,1,0,0)"
font-family="Ubuntu" font-size="9" font-weight="400" font-style="normal" 
>
<path vector-effect="none" fill-rule="evenodd" d="M900,28 C900,264.93 707.93,457 471,457 C234.07,457 42,264.93 42,28 C42,-208.93 234.07,-401 471,-401 C707.93,-401 900,-208.93 900,28 "/>
</g>

<g fill="#0000ff" fill-opacity="1" stroke="#0000ff" stroke-opacity="1" stroke-width="1" stroke-linecap="square" stroke-linejoin="bevel" transform="matrix(1,0,0,1,0,0)"
font-family="Ubuntu" font-size="9" font-weight="400" font-style="normal" 
>
<path vector-effect="none" fill-rule="evenodd" d="M664,411 C664,412.657 662.657,414 661,414 C659.343,414 658,412.657 658,411 C658,409.343 659.343,408 661,408 C662.657,408 664,409.343 664,411 "/>
</g>

<g fill="none" stroke="#0000ff" stroke-opacity="1" stroke-width="1" stroke-linecap="square" stroke-linejoin="bevel" transform="matrix(1,0,0,1,0,0)"
font-family="Ubuntu" font-size="9" font-weight="400" font-style="normal" 
>
<path vector-effect="none" fill-rule="evenodd" d="M736,293 C736,439.908 616.908,559 470,559 C323.092,559 204,439.908 204,293 C204,146.092 323.092,27 470,27 C616.908,27 736,146.092 736,293 "/>
</g>

<g fill="none" stroke="#0000ff" stroke-opacity="1" stroke-width="1" stroke-linecap="square" stroke-linejoin="bevel" transform="matrix(1,0,0,1,0,0)"
font-family="Ubuntu" font-size="9" font-weight="400" font-style="normal" 
>
<polyline fill="none" vector-effect="none" points="470,292 626,507 " />
</g>

<g fill="#0000ff" fill-opacity="1" stroke="#0000ff" stroke-opacity="1" stroke-width="1" stroke-linecap="square" stroke-linejoin="bevel" transform="matrix(1,0,0,1,0,0)"
font-family="Ubuntu" font-size="9" font-weight="400" font-style="normal" 
>
<path vector-effect="none" fill-rule="evenodd" d="M606,293 C606,294.657 604.657,296 603,296 C601.343,296 600,294.657 600,293 C600,291.343 601.343,290 603,290 C604.657,290 606,291.343 606,293 "/>
</g>

<g fill="#0000ff" fill-opacity="1" stroke="#0000ff" stroke-opacity="1" stroke-width="1" stroke-linecap="square" stroke-linejoin="bevel" transform="matrix(1,0,0,1,0,0)"
font-family="Ubuntu" font-size="9" font-weight="400" font-style="normal" 
>
<path vector-effect="none" fill-rule="evenodd" d="M340,64 C340,65.6569 338.657,67 337,67 C335.343,67 334,65.6569 334,64 C334,62.3431 335.343,61 337,61 C338.657,61 340,62.3431 340,64 "/>
</g>

<g fill="#0000ff" fill-opacity="1" stroke="#0000ff" stroke-opacity="1" stroke-width="1" stroke-linecap="square" stroke-linejoin="bevel" transform="matrix(1,0,0,1,0,0)"
font-family="Ubuntu" font-size="9" font-weight="400" font-style="normal" 
>
<path vector-effect="none" fill-rule="evenodd" d="M605,63 C605,64.6569 603.657,66 602,66 C600.343,66 599,64.6569 599,63 C599,61.3431 600.343,60 602,60 C603.657,60 605,61.3431 605,63 "/>
</g>
</g>
</svg>
