<?xml version="1.0" encoding="utf-8"?>
<!DOCTYPE svg PUBLIC "-//W3C//DTD SVG 1.1//EN"
"http://www.w3.org/Graphics/SVG/1.1/DTD/svg11.dtd">
<svg xmlns="http://www.w3.org/2000/svg" width="845" height="586">
<line x1="156.99999999999997" y1="293.0" x2="686.0" y2="293.0" style="stroke:rgb(0,124,0);stroke-width:1"/>
<line x1="422.5" y1="557.0" x2="422.5" y2="28.0" style="stroke:rgb(0,124,0);stroke-width:1"/>
<ellipse cx="422.5" cy="292.99999999999994" rx="265.50000000000006" ry="265.50000000000006" style="stroke:rgb(0,124,124);fill:none;stroke-width:1"/>
<ellipse cx="686.0" cy="293.00000000000006" rx="263.49999999999994" ry="263.49999999999994" style="stroke:rgb(0,124,124);fill:none;stroke-width:1"/>
<ellipse cx="157.0" cy="292.99999999999994" rx="265.50000000000006" ry="265.50000000000006" style="stroke:rgb(0,124,124);fill:none;stroke-width:1"/>
<line x1="556.2575901328274" y1="63.654938832643325" x2="556.2575901328274" y2="522.3450611673567" style="stroke:rgb(0,124,0);stroke-width:1"/>
<line x1="289.75" y1="63.070255295231505" x2="289.75" y2="522.9297447047684" style="stroke:rgb(0,124,0);stroke-width:1"/>
<line x1="148.3427694134263" y1="-515.1592034014343" x2="909.856124364215" y2="993.5479949082952" style="stroke:rgb(150,100,0);stroke-width:1"/>
<ellipse cx="556.2575901328273" cy="293.0" rx="129.74240986717265" ry="129.74240986717265" style="stroke:rgb(0,124,124);fill:none;stroke-width:1"/>
<ellipse cx="422.5" cy="27.999999999999943" rx="426.5859594318237" ry="426.5859594318237" style="stroke:rgb(0,124,124);fill:none;stroke-width:1"/>
<line x1="236.44860008708633" y1="-535.4407707466239" x2="766.3542904327273" y2="1069.333343993301" style="stroke:rgb(150,100,0);stroke-width:1"/>
<line x1="607.085832730503" y1="-535.706026038042" x2="81.17189899763503" y2="1070.380688403498" style="stroke:rgb(150,100,0);stroke-width:1"/>
<line x1="580.4679764627717" y1="506.3925219220608" x2="265.59402299394986" y2="507.17461189360625" style="stroke:rgb(0,124,0);stroke-width:1"/>
<ellipse cx="580.4679764627717" cy="506.3925219220608" rx="314.87492475236803" ry="314.87492475236803" style="stroke:rgb(0,124,124);fill:none;stroke-width:1"/>
<line x1="580.4679764627717" y1="506.3925219220608" x2="673.1562025584732" y2="205.46875918298838" style="stroke:rgb(0,124,0);stroke-width:1"/>
<ellipse cx="265.5940229939498" cy="507.17461189360625" rx="314.874924752368" ry="314.874924752368" style="stroke:rgb(0,124,124);fill:none;stroke-width:1"/>
<line x1="265.59402299394986" y1="507.17461189360625" x2="171.4120693273495" y2="206.71500089513654" style="stroke:rgb(0,124,0);stroke-width:1"/>
<line x1="171.4120693273495" y1="206.71500089513654" x2="422.5" y2="28.0" style="stroke:rgb(0,124,0);stroke-width:1"/>
<line x1="673.1562025584732" y1="205.46875918298838" x2="422.5" y2="28.0" style="stroke:rgb(0,124,0);stroke-width:1"/>
<line x1="422.5" y1="28.0" x2="265.59402299394986" y2="507.17461189360625" style="stroke:rgb(0,124,0);stroke-width:1"/>
<line x1="265.59402299394986" y1="507.17461189360625" x2="673.1562025584732" y2="205.46875918298838" style="stroke:rgb(0,124,0);stroke-width:1"/>
<line x1="673.1562025584732" y1="205.46875918298838" x2="171.4120693273495" y2="206.71500089513654" style="stroke:rgb(0,124,0);stroke-width:1"/>
<line x1="171.4120693273495" y1="206.71500089513654" x2="580.4679764627717" y2="506.3925219220608" style="stroke:rgb(0,124,0);stroke-width:1"/>
<line x1="580.4679764627717" y1="506.3925219220608" x2="422.5" y2="28.0" style="stroke:rgb(0,124,0);stroke-width:1"/>
<line x1="422.5" y1="293.0" x2="422.5" y2="28.0" style="stroke:rgb(0,124,0);stroke-width:1"/>
<line x1="422.5" y1="293.0" x2="171.4120693273495" y2="206.71500089513654" style="stroke:rgb(0,124,0);stroke-width:1"/>
<line x1="422.5" y1="293.0" x2="265.59402299394986" y2="507.17461189360625" style="stroke:rgb(0,124,0);stroke-width:1"/>
<line x1="422.5" y1="293.0" x2="580.4679764627717" y2="506.3925219220608" style="stroke:rgb(0,124,0);stroke-width:1"/>
<line x1="422.5" y1="293.0" x2="673.1562025584732" y2="205.46875918298838" style="stroke:rgb(0,124,0);stroke-width:1"/>
<ellipse cx="156.99999999999997" cy="293.0" rx="4.0" ry="4.0" style="stroke:rgb(0,0,178);stroke-width:1;fill:none"/>
<ellipse cx="686.0" cy="293.0" rx="4.0" ry="4.0" style="stroke:rgb(0,0,178);stroke-width:1;fill:none"/>
<ellipse cx="422.5" cy="557.0" rx="4.0" ry="4.0" style="stroke:rgb(0,0,178);stroke-width:1;fill:none"/>
<ellipse cx="422.5" cy="28.0" rx="4.0" ry="4.0" style="stroke:rgb(0,0,178);stroke-width:1;fill:none"/>
<ellipse cx="422.5" cy="293.0" rx="4.0" ry="4.0" style="stroke:rgb(0,0,178);stroke-width:1;fill:none"/>
<ellipse cx="556.2575901328274" cy="63.654938832643325" rx="4.0" ry="4.0" style="stroke:rgb(0,0,178);stroke-width:1;fill:none"/>
<ellipse cx="556.2575901328274" cy="522.3450611673567" rx="4.0" ry="4.0" style="stroke:rgb(0,0,178);stroke-width:1;fill:none"/>
<ellipse cx="289.75" cy="63.070255295231505" rx="4.0" ry="4.0" style="stroke:rgb(0,0,178);stroke-width:1;fill:none"/>
<ellipse cx="289.75" cy="522.9297447047684" rx="4.0" ry="4.0" style="stroke:rgb(0,0,178);stroke-width:1;fill:none"/>
<ellipse cx="556.2575901328274" cy="293.0" rx="4.0" ry="4.0" style="stroke:rgb(0,0,178);stroke-width:1;fill:none"/>
<ellipse cx="614.7194704981237" cy="408.8244424216891" rx="4.0" ry="4.0" style="stroke:rgb(0,0,178);stroke-width:1;fill:none"/>
<ellipse cx="556.2575901328274" cy="433.07343515247703" rx="4.0" ry="4.0" style="stroke:rgb(0,0,178);stroke-width:1;fill:none"/>
<ellipse cx="289.75" cy="433.4047585862424" rx="4.0" ry="4.0" style="stroke:rgb(0,0,178);stroke-width:1;fill:none"/>
<ellipse cx="580.4679764627717" cy="506.3925219220608" rx="4.0" ry="4.0" style="stroke:rgb(0,0,178);stroke-width:1;fill:none"/>
<ellipse cx="265.59402299394986" cy="507.17461189360625" rx="4.0" ry="4.0" style="stroke:rgb(0,0,178);stroke-width:1;fill:none"/>
<ellipse cx="673.1562025584732" cy="205.46875918298838" rx="4.0" ry="4.0" style="stroke:rgb(0,0,178);stroke-width:1;fill:none"/>
<ellipse cx="171.4120693273495" cy="206.71500089513654" rx="4.0" ry="4.0" style="stroke:rgb(0,0,178);stroke-width:1;fill:none"/>
<ellipse cx="156.99999999999997" cy="293.0" rx="4.0" ry="4.0" style="stroke:rgb(0,0,178);stroke-width:1;fill:none"/>
<ellipse cx="686.0" cy="293.0" rx="4.0" ry="4.0" style="stroke:rgb(0,0,178);stroke-width:1;fill:none"/>
<ellipse cx="422.5" cy="557.0" rx="4.0" ry="4.0" style="stroke:rgb(0,0,178);stroke-width:1;fill:none"/>
<ellipse cx="422.5" cy="28.0" rx="4.0" ry="4.0" style="stroke:rgb(0,0,178);stroke-width:1;fill:none"/>
<ellipse cx="422.5" cy="293.0" rx="4.0" ry="4.0" style="stroke:rgb(0,0,178);stroke-width:1;fill:none"/>
<ellipse cx="556.2575901328274" cy="63.654938832643325" rx="4.0" ry="4.0" style="stroke:rgb(0,0,178);stroke-width:1;fill:none"/>
<ellipse cx="556.2575901328274" cy="522.3450611673567" rx="4.0" ry="4.0" style="stroke:rgb(0,0,178);stroke-width:1;fill:none"/>
<ellipse cx="289.75" cy="63.070255295231505" rx="4.0" ry="4.0" style="stroke:rgb(0,0,178);stroke-width:1;fill:none"/>
<ellipse cx="289.75" cy="522.9297447047684" rx="4.0" ry="4.0" style="stroke:rgb(0,0,178);stroke-width:1;fill:none"/>
<ellipse cx="556.2575901328274" cy="293.0" rx="4.0" ry="4.0" style="stroke:rgb(0,0,178);stroke-width:1;fill:none"/>
<ellipse cx="614.7194704981237" cy="408.8244424216891" rx="4.0" ry="4.0" style="stroke:rgb(0,0,178);stroke-width:1;fill:none"/>
<ellipse cx="556.2575901328274" cy="433.07343515247703" rx="4.0" ry="4.0" style="stroke:rgb(0,0,178);stroke-width:1;fill:none"/>
<ellipse cx="289.75" cy="433.4047585862424" rx="4.0" ry="4.0" style="stroke:rgb(0,0,178);stroke-width:1;fill:none"/>
<ellipse cx="580.4679764627717" cy="506.3925219220608" rx="4.0" ry="4.0" style="stroke:rgb(0,0,178);stroke-width:1;fill:none"/>
<ellipse cx="265.59402299394986" cy="507.17461189360625" rx="4.0" ry="4.0" style="stroke:rgb(0,0,178);stroke-width:1;fill:none"/>
<ellipse cx="673.1562025584732" cy="205.46875918298838" rx="4.0" ry="4.0" style="stroke:rgb(0,0,178);stroke-width:1;fill:none"/>
<ellipse cx="171.4120693273495" cy="206.71500089513654" rx="4.0" ry="4.0" style="stroke:rgb(0,0,178);stroke-width:1;fill:none"/>
</svg>
