<?xml version="1.0" encoding="UTF-8" standalone="no"?>
<!-- Created with Inkscape (http://www.inkscape.org/) -->

<svg
   xmlns:dc="http://purl.org/dc/elements/1.1/"
   xmlns:cc="http://creativecommons.org/ns#"
   xmlns:rdf="http://www.w3.org/1999/02/22-rdf-syntax-ns#"
   xmlns:svg="http://www.w3.org/2000/svg"
   xmlns="http://www.w3.org/2000/svg"
   xmlns:sodipodi="http://sodipodi.sourceforge.net/DTD/sodipodi-0.dtd"
   xmlns:inkscape="http://www.inkscape.org/namespaces/inkscape"
   width="744.09448819"
   height="1052.3622047"
   id="svg2"
   version="1.1"
   inkscape:version="0.48.3.1 r9886"
   sodipodi:docname="mypent-ink-tem.svg">
  <defs
     id="defs4" />
  <sodipodi:namedview
     id="base"
     pagecolor="#ffffff"
     bordercolor="#666666"
     borderopacity="1.0"
     inkscape:pageopacity="0.0"
     inkscape:pageshadow="2"
     inkscape:zoom="0.7"
     inkscape:cx="27.029976"
     inkscape:cy="510.50055"
     inkscape:document-units="px"
     inkscape:current-layer="layer6"
     showgrid="false"
     inkscape:window-width="1024"
     inkscape:window-height="678"
     inkscape:window-x="-2"
     inkscape:window-y="32"
     inkscape:window-maximized="1" />
  <metadata
     id="metadata7">
    <rdf:RDF>
      <cc:Work
         rdf:about="">
        <dc:format>image/svg+xml</dc:format>
        <dc:type
           rdf:resource="http://purl.org/dc/dcmitype/StillImage" />
        <dc:title></dc:title>
        <cc:license
           rdf:resource="http://creativecommons.org/licenses/by/3.0/" />
        <dc:creator>
          <cc:Agent>
            <dc:title>Paul Elliott</dc:title>
          </cc:Agent>
        </dc:creator>
      </cc:Work>
      <cc:License
         rdf:about="http://creativecommons.org/licenses/by/3.0/">
        <cc:permits
           rdf:resource="http://creativecommons.org/ns#Reproduction" />
        <cc:permits
           rdf:resource="http://creativecommons.org/ns#Distribution" />
        <cc:requires
           rdf:resource="http://creativecommons.org/ns#Notice" />
        <cc:requires
           rdf:resource="http://creativecommons.org/ns#Attribution" />
        <cc:permits
           rdf:resource="http://creativecommons.org/ns#DerivativeWorks" />
      </cc:License>
    </rdf:RDF>
  </metadata>
  <g
     inkscape:label="Layer 1"
     inkscape:groupmode="layer"
     id="layer1"
     style="display:none" />
  <g
     inkscape:groupmode="layer"
     id="layer2"
     inkscape:label="mypent"
     style="display:none" />
  <g
     inkscape:groupmode="layer"
     id="layer9"
     inkscape:label="Circle"
     style="display:inline">
    <ellipse
       d="M 688,293 C 688,439.6316 569.1316,558.5 422.5,558.5 275.8684,558.5 157,439.6316 157,293 157,146.3684 275.8684,27.5 422.5,27.5 569.1316,27.5 688,146.3684 688,293 z"
       sodipodi:ry="265.5"
       sodipodi:rx="265.5"
       sodipodi:cy="293"
       sodipodi:cx="422.5"
       cx="422.5"
       cy="293"
       rx="265.5"
       ry="265.5"
       style="fill:none;stroke:#007c7c;stroke-width:1;display:inline"
       id="ellipse3241"
       transform="translate(-38.357147,262.1677)" />
  </g>
  <g
     inkscape:groupmode="layer"
     id="layer8"
     inkscape:label="Pentagon"
     style="display:none">
    <line
       x1="133.05492"
       y1="468.88269"
       x2="384.14285"
       y2="290.16769"
       style="stroke:#007c00;stroke-width:1;display:inline"
       id="line3271" />
    <line
       x1="634.79907"
       y1="467.63647"
       x2="384.14285"
       y2="290.16769"
       style="stroke:#007c00;stroke-width:1;display:inline"
       id="line3273" />
    <line
       x1="542.11084"
       y1="768.56024"
       x2="634.79907"
       y2="467.63647"
       style="stroke:#007c00;stroke-width:1;display:inline"
       id="line3265" />
    <line
       x1="542.11084"
       y1="768.56024"
       x2="227.23688"
       y2="769.34235"
       style="stroke:#007c00;stroke-width:1;display:inline"
       id="line3261" />
    <line
       x1="227.23688"
       y1="769.34235"
       x2="133.05492"
       y2="468.88269"
       style="stroke:#007c00;stroke-width:1;display:inline"
       id="line3269" />
  </g>
  <g
     inkscape:groupmode="layer"
     id="layer7"
     inkscape:label="Pie"
     style="display:none">
    <line
       x1="384.14285"
       y1="555.16772"
       x2="384.14285"
       y2="290.16769"
       style="stroke:#007c00;stroke-width:1;display:inline"
       id="line3285" />
    <line
       x1="384.14285"
       y1="555.16772"
       x2="133.05492"
       y2="468.88269"
       style="stroke:#007c00;stroke-width:1;display:inline"
       id="line3287" />
    <line
       x1="384.14285"
       y1="555.16772"
       x2="227.23688"
       y2="769.34235"
       style="stroke:#007c00;stroke-width:1;display:inline"
       id="line3289" />
    <line
       x1="384.14285"
       y1="555.16772"
       x2="542.11084"
       y2="768.56024"
       style="stroke:#007c00;stroke-width:1;display:inline"
       id="line3291" />
    <line
       x1="384.14285"
       y1="555.16772"
       x2="634.79907"
       y2="467.63647"
       style="stroke:#007c00;stroke-width:1;display:inline"
       id="line3293" />
  </g>
  <g
     inkscape:groupmode="layer"
     id="layer6"
     inkscape:label="Pentagram"
     style="display:inline">
    <line
       x1="542.11084"
       y1="768.56024"
       x2="384.14285"
       y2="290.16769"
       style="stroke:#007c00;stroke-width:1;display:inline"
       id="line3283" />
    <line
       x1="384.14285"
       y1="290.16769"
       x2="227.23688"
       y2="769.34235"
       style="stroke:#007c00;stroke-width:1;display:inline"
       id="line3275" />
    <line
       x1="227.23688"
       y1="769.34235"
       x2="634.79907"
       y2="467.63647"
       style="stroke:#007c00;stroke-width:1;display:inline"
       id="line3277" />
    <line
       x1="133.05492"
       y1="468.88269"
       x2="542.11084"
       y2="768.56024"
       style="stroke:#007c00;stroke-width:1;display:inline"
       id="line3281" />
    <line
       x1="634.79907"
       y1="467.63647"
       x2="133.05492"
       y2="468.88269"
       style="stroke:#007c00;stroke-width:1;display:inline"
       id="line3279" />
  </g>
  <g
     inkscape:groupmode="layer"
     id="layer5"
     inkscape:label="Cross"
     style="display:none">
    <line
       x1="118.64285"
       y1="555.16772"
       x2="647.64288"
       y2="555.16772"
       style="stroke:#007c00;stroke-width:1;display:inline"
       id="line3237" />
    <line
       x1="384.14285"
       y1="819.16772"
       x2="384.14285"
       y2="290.16769"
       style="stroke:#007c00;stroke-width:1;display:inline"
       id="line3239" />
  </g>
  <g
     inkscape:groupmode="layer"
     id="layer4"
     inkscape:label="construct"
     style="display:none">
    <line
       x1="568.7287"
       y1="-273.53836"
       x2="42.814751"
       y2="1332.5485"
       style="stroke:#966400;stroke-width:1;display:inline"
       id="line3259" />
    <line
       x1="198.09145"
       y1="-273.2731"
       x2="727.99719"
       y2="1331.5011"
       style="stroke:#966400;stroke-width:1;display:inline"
       id="line3257" />
    <line
       x1="109.98563"
       y1="-252.99149"
       x2="871.49902"
       y2="1255.7157"
       style="stroke:#966400;stroke-width:1;display:inline"
       id="line3251" />
    <ellipse
       d="m 580.46896,507.17462 c 0,173.90063 -140.97431,314.87494 -314.87494,314.87494 -173.900622,0 -314.874934,-140.97431 -314.874934,-314.87494 0,-173.90063 140.974312,-314.87494 314.874934,-314.87494 173.90063,0 314.87494,140.97431 314.87494,314.87494 z"
       sodipodi:ry="314.87494"
       sodipodi:rx="314.87494"
       sodipodi:cy="507.17462"
       sodipodi:cx="265.59402"
       cx="265.59402"
       cy="507.17462"
       rx="314.87494"
       ry="314.87494"
       style="fill:none;stroke:#007c7c;stroke-width:1;display:inline"
       id="ellipse3267"
       transform="translate(-38.357147,262.1677)" />
    <ellipse
       d="M 949.5,293 C 949.5,438.52703 831.52703,556.5 686,556.5 540.47297,556.5 422.5,438.52703 422.5,293 422.5,147.47297 540.47297,29.5 686,29.5 831.52703,29.5 949.5,147.47297 949.5,293 z"
       sodipodi:ry="263.5"
       sodipodi:rx="263.5"
       sodipodi:cy="293"
       sodipodi:cx="686"
       cx="686"
       cy="293"
       rx="263.5"
       ry="263.5"
       style="fill:none;stroke:#007c7c;stroke-width:1;display:inline"
       id="ellipse3243"
       transform="translate(-38.357147,262.1677)" />
    <ellipse
       d="m 895.3429,506.39252 c 0,173.90062 -140.97432,314.87494 -314.87494,314.87494 -173.90063,0 -314.87494,-140.97432 -314.87494,-314.87494 0,-173.90063 140.97431,-314.87494 314.87494,-314.87494 173.90062,0 314.87494,140.97431 314.87494,314.87494 z"
       sodipodi:ry="314.87494"
       sodipodi:rx="314.87494"
       sodipodi:cy="506.39252"
       sodipodi:cx="580.46796"
       cx="580.46796"
       cy="506.39252"
       rx="314.87494"
       ry="314.87494"
       style="fill:none;stroke:#007c7c;stroke-width:1;display:inline"
       id="ellipse3263"
       transform="translate(-38.357147,262.1677)" />
    <ellipse
       d="M 422.5,293 C 422.5,439.6316 303.6316,558.5 157,558.5 10.368399,558.5 -108.5,439.6316 -108.5,293 -108.5,146.3684 10.368399,27.5 157,27.5 303.6316,27.5 422.5,146.3684 422.5,293 z"
       sodipodi:ry="265.5"
       sodipodi:rx="265.5"
       sodipodi:cy="293"
       sodipodi:cx="157"
       cx="157"
       cy="293"
       rx="265.5"
       ry="265.5"
       style="fill:none;stroke:#007c7c;stroke-width:1;display:inline"
       id="ellipse3245"
       transform="translate(-38.357147,262.1677)" />
    <ellipse
       d="M 849.08597,28 C 849.08597,263.59692 658.09692,454.58597 422.5,454.58597 186.90308,454.58597 -4.085968,263.59692 -4.085968,28 c 0,-235.59692 190.989048,-426.58597 426.585968,-426.58597 235.59692,0 426.58597,190.98905 426.58597,426.58597 z"
       sodipodi:ry="426.58597"
       sodipodi:rx="426.58597"
       sodipodi:cy="28"
       sodipodi:cx="422.5"
       cx="422.5"
       cy="28"
       rx="426.58597"
       ry="426.58597"
       style="fill:none;stroke:#007c7c;stroke-width:1;display:inline"
       id="ellipse3255"
       transform="translate(-38.357147,262.1677)" />
    <line
       x1="251.39285"
       y1="325.23795"
       x2="251.39285"
       y2="785.09747"
       style="stroke:#007c00;stroke-width:1;display:inline"
       id="line3249" />
    <line
       x1="517.90045"
       y1="325.82263"
       x2="517.90045"
       y2="784.51276"
       style="stroke:#007c00;stroke-width:1;display:inline"
       id="line3247" />
    <ellipse
       d="m 685.99998,293 c 0,71.65476 -58.08765,129.74242 -129.74241,129.74242 -71.65476,0 -129.74242,-58.08766 -129.74242,-129.74242 0,-71.65476 58.08766,-129.74242 129.74242,-129.74242 71.65476,0 129.74241,58.08766 129.74241,129.74242 z"
       sodipodi:ry="129.74242"
       sodipodi:rx="129.74242"
       sodipodi:cy="293"
       sodipodi:cx="556.25757"
       cx="556.25757"
       cy="293"
       rx="129.74242"
       ry="129.74242"
       style="fill:none;stroke:#007c7c;stroke-width:1;display:inline"
       id="ellipse3253"
       transform="translate(-38.357147,262.1677)" />
  </g>
  <g
     inkscape:groupmode="layer"
     id="layer3"
     inkscape:label="Points"
     style="display:none">
    <ellipse
       d="m 293.75,63.070255 c 0,2.209139 -1.79086,4 -4,4 -2.20914,0 -4,-1.790861 -4,-4 0,-2.209139 1.79086,-4 4,-4 2.20914,0 4,1.790861 4,4 z"
       sodipodi:ry="4"
       sodipodi:rx="4"
       sodipodi:cy="63.070255"
       sodipodi:cx="289.75"
       cx="289.75"
       cy="63.070255"
       rx="4"
       ry="4"
       style="fill:none;stroke:#0000b2;stroke-width:1;display:inline"
       id="ellipse3343"
       transform="translate(-38.357147,262.1677)" />
    <ellipse
       d="m 293.75,63.070255 c 0,2.209139 -1.79086,4 -4,4 -2.20914,0 -4,-1.790861 -4,-4 0,-2.209139 1.79086,-4 4,-4 2.20914,0 4,1.790861 4,4 z"
       sodipodi:ry="4"
       sodipodi:rx="4"
       sodipodi:cy="63.070255"
       sodipodi:cx="289.75"
       cx="289.75"
       cy="63.070255"
       rx="4"
       ry="4"
       style="fill:none;stroke:#0000b2;stroke-width:1;display:inline"
       id="ellipse3309"
       transform="translate(-38.357147,262.1677)" />
    <ellipse
       d="m 426.5,28 c 0,2.209139 -1.79086,4 -4,4 -2.20914,0 -4,-1.790861 -4,-4 0,-2.209139 1.79086,-4 4,-4 2.20914,0 4,1.790861 4,4 z"
       sodipodi:ry="4"
       sodipodi:rx="4"
       sodipodi:cy="28"
       sodipodi:cx="422.5"
       cx="422.5"
       cy="28"
       rx="4"
       ry="4"
       style="fill:none;stroke:#0000b2;stroke-width:1;display:inline"
       id="ellipse3335"
       transform="translate(-38.357147,262.1677)" />
    <ellipse
       d="m 426.5,28 c 0,2.209139 -1.79086,4 -4,4 -2.20914,0 -4,-1.790861 -4,-4 0,-2.209139 1.79086,-4 4,-4 2.20914,0 4,1.790861 4,4 z"
       sodipodi:ry="4"
       sodipodi:rx="4"
       sodipodi:cy="28"
       sodipodi:cx="422.5"
       cx="422.5"
       cy="28"
       rx="4"
       ry="4"
       style="fill:none;stroke:#0000b2;stroke-width:1;display:inline"
       id="ellipse3301"
       transform="translate(-38.357147,262.1677)" />
    <ellipse
       d="m 560.25757,63.654938 c 0,2.209139 -1.79086,4 -4,4 -2.20914,0 -4,-1.790861 -4,-4 0,-2.209139 1.79086,-4 4,-4 2.20914,0 4,1.790861 4,4 z"
       sodipodi:ry="4"
       sodipodi:rx="4"
       sodipodi:cy="63.654938"
       sodipodi:cx="556.25757"
       cx="556.25757"
       cy="63.654938"
       rx="4"
       ry="4"
       style="fill:none;stroke:#0000b2;stroke-width:1;display:inline"
       id="ellipse3339"
       transform="translate(-38.357147,262.1677)" />
    <ellipse
       d="m 560.25757,63.654938 c 0,2.209139 -1.79086,4 -4,4 -2.20914,0 -4,-1.790861 -4,-4 0,-2.209139 1.79086,-4 4,-4 2.20914,0 4,1.790861 4,4 z"
       sodipodi:ry="4"
       sodipodi:rx="4"
       sodipodi:cy="63.654938"
       sodipodi:cx="556.25757"
       cx="556.25757"
       cy="63.654938"
       rx="4"
       ry="4"
       style="fill:none;stroke:#0000b2;stroke-width:1;display:inline"
       id="ellipse3305"
       transform="translate(-38.357147,262.1677)" />
    <ellipse
       d="m 175.41206,206.715 c 0,2.20914 -1.79086,4 -4,4 -2.20914,0 -4,-1.79086 -4,-4 0,-2.20914 1.79086,-4 4,-4 2.20914,0 4,1.79086 4,4 z"
       sodipodi:ry="4"
       sodipodi:rx="4"
       sodipodi:cy="206.715"
       sodipodi:cx="171.41206"
       cx="171.41206"
       cy="206.715"
       rx="4"
       ry="4"
       style="fill:none;stroke:#0000b2;stroke-width:1;display:inline"
       id="ellipse3361"
       transform="translate(-38.357147,262.1677)" />
    <ellipse
       d="m 175.41206,206.715 c 0,2.20914 -1.79086,4 -4,4 -2.20914,0 -4,-1.79086 -4,-4 0,-2.20914 1.79086,-4 4,-4 2.20914,0 4,1.79086 4,4 z"
       sodipodi:ry="4"
       sodipodi:rx="4"
       sodipodi:cy="206.715"
       sodipodi:cx="171.41206"
       cx="171.41206"
       cy="206.715"
       rx="4"
       ry="4"
       style="fill:none;stroke:#0000b2;stroke-width:1;display:inline"
       id="ellipse3327"
       transform="translate(-38.357147,262.1677)" />
    <ellipse
       d="m 677.15619,205.46877 c 0,2.20913 -1.79086,4 -4,4 -2.20914,0 -4,-1.79087 -4,-4 0,-2.20914 1.79086,-4 4,-4 2.20914,0 4,1.79086 4,4 z"
       sodipodi:ry="4"
       sodipodi:rx="4"
       sodipodi:cy="205.46877"
       sodipodi:cx="673.15619"
       cx="673.15619"
       cy="205.46877"
       rx="4"
       ry="4"
       style="fill:none;stroke:#0000b2;stroke-width:1;display:inline"
       id="ellipse3359"
       transform="translate(-38.357147,262.1677)" />
    <ellipse
       d="m 677.15619,205.46877 c 0,2.20913 -1.79086,4 -4,4 -2.20914,0 -4,-1.79087 -4,-4 0,-2.20914 1.79086,-4 4,-4 2.20914,0 4,1.79086 4,4 z"
       sodipodi:ry="4"
       sodipodi:rx="4"
       sodipodi:cy="205.46877"
       sodipodi:cx="673.15619"
       cx="673.15619"
       cy="205.46877"
       rx="4"
       ry="4"
       style="fill:none;stroke:#0000b2;stroke-width:1;display:inline"
       id="ellipse3325"
       transform="translate(-38.357147,262.1677)" />
    <ellipse
       d="m 426.5,293 c 0,2.20914 -1.79086,4 -4,4 -2.20914,0 -4,-1.79086 -4,-4 0,-2.20914 1.79086,-4 4,-4 2.20914,0 4,1.79086 4,4 z"
       sodipodi:ry="4"
       sodipodi:rx="4"
       sodipodi:cy="293"
       sodipodi:cx="422.5"
       cx="422.5"
       cy="293"
       rx="4"
       ry="4"
       style="fill:none;stroke:#0000b2;stroke-width:1;display:inline"
       id="ellipse3337"
       transform="translate(-38.357147,262.1677)" />
    <ellipse
       d="m 426.5,293 c 0,2.20914 -1.79086,4 -4,4 -2.20914,0 -4,-1.79086 -4,-4 0,-2.20914 1.79086,-4 4,-4 2.20914,0 4,1.79086 4,4 z"
       sodipodi:ry="4"
       sodipodi:rx="4"
       sodipodi:cy="293"
       sodipodi:cx="422.5"
       cx="422.5"
       cy="293"
       rx="4"
       ry="4"
       style="fill:none;stroke:#0000b2;stroke-width:1;display:inline"
       id="ellipse3303"
       transform="translate(-38.357147,262.1677)" />
    <ellipse
       d="m 161,293 c 0,2.20914 -1.79086,4 -4,4 -2.20914,0 -4,-1.79086 -4,-4 0,-2.20914 1.79086,-4 4,-4 2.20914,0 4,1.79086 4,4 z"
       sodipodi:ry="4"
       sodipodi:rx="4"
       sodipodi:cy="293"
       sodipodi:cx="157"
       cx="157"
       cy="293"
       rx="4"
       ry="4"
       style="fill:none;stroke:#0000b2;stroke-width:1;display:inline"
       id="ellipse3329"
       transform="translate(-38.357147,262.1677)" />
    <ellipse
       d="m 161,293 c 0,2.20914 -1.79086,4 -4,4 -2.20914,0 -4,-1.79086 -4,-4 0,-2.20914 1.79086,-4 4,-4 2.20914,0 4,1.79086 4,4 z"
       sodipodi:ry="4"
       sodipodi:rx="4"
       sodipodi:cy="293"
       sodipodi:cx="157"
       cx="157"
       cy="293"
       rx="4"
       ry="4"
       style="fill:none;stroke:#0000b2;stroke-width:1;display:inline"
       id="ellipse3295"
       transform="translate(-38.357147,262.1677)" />
    <ellipse
       d="m 560.25757,293 c 0,2.20914 -1.79086,4 -4,4 -2.20914,0 -4,-1.79086 -4,-4 0,-2.20914 1.79086,-4 4,-4 2.20914,0 4,1.79086 4,4 z"
       sodipodi:ry="4"
       sodipodi:rx="4"
       sodipodi:cy="293"
       sodipodi:cx="556.25757"
       cx="556.25757"
       cy="293"
       rx="4"
       ry="4"
       style="fill:none;stroke:#0000b2;stroke-width:1;display:inline"
       id="ellipse3347"
       transform="translate(-38.357147,262.1677)" />
    <ellipse
       d="m 560.25757,293 c 0,2.20914 -1.79086,4 -4,4 -2.20914,0 -4,-1.79086 -4,-4 0,-2.20914 1.79086,-4 4,-4 2.20914,0 4,1.79086 4,4 z"
       sodipodi:ry="4"
       sodipodi:rx="4"
       sodipodi:cy="293"
       sodipodi:cx="556.25757"
       cx="556.25757"
       cy="293"
       rx="4"
       ry="4"
       style="fill:none;stroke:#0000b2;stroke-width:1;display:inline"
       id="ellipse3313"
       transform="translate(-38.357147,262.1677)" />
    <ellipse
       d="m 690,293 c 0,2.20914 -1.79086,4 -4,4 -2.20914,0 -4,-1.79086 -4,-4 0,-2.20914 1.79086,-4 4,-4 2.20914,0 4,1.79086 4,4 z"
       sodipodi:ry="4"
       sodipodi:rx="4"
       sodipodi:cy="293"
       sodipodi:cx="686"
       cx="686"
       cy="293"
       rx="4"
       ry="4"
       style="fill:none;stroke:#0000b2;stroke-width:1;display:inline"
       id="ellipse3331"
       transform="translate(-38.357147,262.1677)" />
    <ellipse
       d="m 690,293 c 0,2.20914 -1.79086,4 -4,4 -2.20914,0 -4,-1.79086 -4,-4 0,-2.20914 1.79086,-4 4,-4 2.20914,0 4,1.79086 4,4 z"
       sodipodi:ry="4"
       sodipodi:rx="4"
       sodipodi:cy="293"
       sodipodi:cx="686"
       cx="686"
       cy="293"
       rx="4"
       ry="4"
       style="fill:none;stroke:#0000b2;stroke-width:1;display:inline"
       id="ellipse3297"
       transform="translate(-38.357147,262.1677)" />
    <ellipse
       d="m 618.71948,408.82443 c 0,2.20914 -1.79086,4 -4,4 -2.20914,0 -4,-1.79086 -4,-4 0,-2.20914 1.79086,-4 4,-4 2.20914,0 4,1.79086 4,4 z"
       sodipodi:ry="4"
       sodipodi:rx="4"
       sodipodi:cy="408.82443"
       sodipodi:cx="614.71948"
       cx="614.71948"
       cy="408.82443"
       rx="4"
       ry="4"
       style="fill:none;stroke:#0000b2;stroke-width:1;display:inline"
       id="ellipse3349"
       transform="translate(-38.357147,262.1677)" />
    <ellipse
       d="m 618.71948,408.82443 c 0,2.20914 -1.79086,4 -4,4 -2.20914,0 -4,-1.79086 -4,-4 0,-2.20914 1.79086,-4 4,-4 2.20914,0 4,1.79086 4,4 z"
       sodipodi:ry="4"
       sodipodi:rx="4"
       sodipodi:cy="408.82443"
       sodipodi:cx="614.71948"
       cx="614.71948"
       cy="408.82443"
       rx="4"
       ry="4"
       style="fill:none;stroke:#0000b2;stroke-width:1;display:inline"
       id="ellipse3315"
       transform="translate(-38.357147,262.1677)" />
    <ellipse
       d="m 560.25757,433.07343 c 0,2.20913 -1.79086,4 -4,4 -2.20914,0 -4,-1.79087 -4,-4 0,-2.20914 1.79086,-4 4,-4 2.20914,0 4,1.79086 4,4 z"
       sodipodi:ry="4"
       sodipodi:rx="4"
       sodipodi:cy="433.07343"
       sodipodi:cx="556.25757"
       cx="556.25757"
       cy="433.07343"
       rx="4"
       ry="4"
       style="fill:none;stroke:#0000b2;stroke-width:1;display:inline"
       id="ellipse3351"
       transform="translate(-38.357147,262.1677)" />
    <ellipse
       d="m 560.25757,433.07343 c 0,2.20913 -1.79086,4 -4,4 -2.20914,0 -4,-1.79087 -4,-4 0,-2.20914 1.79086,-4 4,-4 2.20914,0 4,1.79086 4,4 z"
       sodipodi:ry="4"
       sodipodi:rx="4"
       sodipodi:cy="433.07343"
       sodipodi:cx="556.25757"
       cx="556.25757"
       cy="433.07343"
       rx="4"
       ry="4"
       style="fill:none;stroke:#0000b2;stroke-width:1;display:inline"
       id="ellipse3317"
       transform="translate(-38.357147,262.1677)" />
    <ellipse
       d="m 293.75,433.40475 c 0,2.20914 -1.79086,4 -4,4 -2.20914,0 -4,-1.79086 -4,-4 0,-2.20913 1.79086,-4 4,-4 2.20914,0 4,1.79087 4,4 z"
       sodipodi:ry="4"
       sodipodi:rx="4"
       sodipodi:cy="433.40475"
       sodipodi:cx="289.75"
       cx="289.75"
       cy="433.40475"
       rx="4"
       ry="4"
       style="fill:none;stroke:#0000b2;stroke-width:1;display:inline"
       id="ellipse3353"
       transform="translate(-38.357147,262.1677)" />
    <ellipse
       d="m 293.75,433.40475 c 0,2.20914 -1.79086,4 -4,4 -2.20914,0 -4,-1.79086 -4,-4 0,-2.20913 1.79086,-4 4,-4 2.20914,0 4,1.79087 4,4 z"
       sodipodi:ry="4"
       sodipodi:rx="4"
       sodipodi:cy="433.40475"
       sodipodi:cx="289.75"
       cx="289.75"
       cy="433.40475"
       rx="4"
       ry="4"
       style="fill:none;stroke:#0000b2;stroke-width:1;display:inline"
       id="ellipse3319"
       transform="translate(-38.357147,262.1677)" />
    <ellipse
       d="m 426.5,557 c 0,2.20914 -1.79086,4 -4,4 -2.20914,0 -4,-1.79086 -4,-4 0,-2.20914 1.79086,-4 4,-4 2.20914,0 4,1.79086 4,4 z"
       sodipodi:ry="4"
       sodipodi:rx="4"
       sodipodi:cy="557"
       sodipodi:cx="422.5"
       cx="422.5"
       cy="557"
       rx="4"
       ry="4"
       style="fill:none;stroke:#0000b2;stroke-width:1;display:inline"
       id="ellipse3333"
       transform="translate(-38.357147,262.1677)" />
    <ellipse
       d="m 426.5,557 c 0,2.20914 -1.79086,4 -4,4 -2.20914,0 -4,-1.79086 -4,-4 0,-2.20914 1.79086,-4 4,-4 2.20914,0 4,1.79086 4,4 z"
       sodipodi:ry="4"
       sodipodi:rx="4"
       sodipodi:cy="557"
       sodipodi:cx="422.5"
       cx="422.5"
       cy="557"
       rx="4"
       ry="4"
       style="fill:none;stroke:#0000b2;stroke-width:1;display:inline"
       id="ellipse3299"
       transform="translate(-38.357147,262.1677)" />
    <ellipse
       d="m 293.75,522.92975 c 0,2.20914 -1.79086,4 -4,4 -2.20914,0 -4,-1.79086 -4,-4 0,-2.20914 1.79086,-4 4,-4 2.20914,0 4,1.79086 4,4 z"
       sodipodi:ry="4"
       sodipodi:rx="4"
       sodipodi:cy="522.92975"
       sodipodi:cx="289.75"
       cx="289.75"
       cy="522.92975"
       rx="4"
       ry="4"
       style="fill:none;stroke:#0000b2;stroke-width:1;display:inline"
       id="ellipse3345"
       transform="translate(-38.357147,262.1677)" />
    <ellipse
       d="m 293.75,522.92975 c 0,2.20914 -1.79086,4 -4,4 -2.20914,0 -4,-1.79086 -4,-4 0,-2.20914 1.79086,-4 4,-4 2.20914,0 4,1.79086 4,4 z"
       sodipodi:ry="4"
       sodipodi:rx="4"
       sodipodi:cy="522.92975"
       sodipodi:cx="289.75"
       cx="289.75"
       cy="522.92975"
       rx="4"
       ry="4"
       style="fill:none;stroke:#0000b2;stroke-width:1;display:inline"
       id="ellipse3311"
       transform="translate(-38.357147,262.1677)" />
    <ellipse
       d="m 560.25757,522.34503 c 0,2.20914 -1.79086,4 -4,4 -2.20914,0 -4,-1.79086 -4,-4 0,-2.20914 1.79086,-4 4,-4 2.20914,0 4,1.79086 4,4 z"
       sodipodi:ry="4"
       sodipodi:rx="4"
       sodipodi:cy="522.34503"
       sodipodi:cx="556.25757"
       cx="556.25757"
       cy="522.34503"
       rx="4"
       ry="4"
       style="fill:none;stroke:#0000b2;stroke-width:1;display:inline"
       id="ellipse3341"
       transform="translate(-38.357147,262.1677)" />
    <ellipse
       d="m 560.25757,522.34503 c 0,2.20914 -1.79086,4 -4,4 -2.20914,0 -4,-1.79086 -4,-4 0,-2.20914 1.79086,-4 4,-4 2.20914,0 4,1.79086 4,4 z"
       sodipodi:ry="4"
       sodipodi:rx="4"
       sodipodi:cy="522.34503"
       sodipodi:cx="556.25757"
       cx="556.25757"
       cy="522.34503"
       rx="4"
       ry="4"
       style="fill:none;stroke:#0000b2;stroke-width:1;display:inline"
       id="ellipse3307"
       transform="translate(-38.357147,262.1677)" />
    <ellipse
       d="m 269.59402,507.17462 c 0,2.20914 -1.79086,4 -4,4 -2.20913,0 -4,-1.79086 -4,-4 0,-2.20914 1.79087,-4 4,-4 2.20914,0 4,1.79086 4,4 z"
       sodipodi:ry="4"
       sodipodi:rx="4"
       sodipodi:cy="507.17462"
       sodipodi:cx="265.59402"
       cx="265.59402"
       cy="507.17462"
       rx="4"
       ry="4"
       style="fill:none;stroke:#0000b2;stroke-width:1;display:inline"
       id="ellipse3357"
       transform="translate(-38.357147,262.1677)" />
    <ellipse
       d="m 269.59402,507.17462 c 0,2.20914 -1.79086,4 -4,4 -2.20913,0 -4,-1.79086 -4,-4 0,-2.20914 1.79087,-4 4,-4 2.20914,0 4,1.79086 4,4 z"
       sodipodi:ry="4"
       sodipodi:rx="4"
       sodipodi:cy="507.17462"
       sodipodi:cx="265.59402"
       cx="265.59402"
       cy="507.17462"
       rx="4"
       ry="4"
       style="fill:none;stroke:#0000b2;stroke-width:1;display:inline"
       id="ellipse3323"
       transform="translate(-38.357147,262.1677)" />
    <ellipse
       d="m 584.46796,506.39252 c 0,2.20914 -1.79086,4 -4,4 -2.20914,0 -4,-1.79086 -4,-4 0,-2.20914 1.79086,-4 4,-4 2.20914,0 4,1.79086 4,4 z"
       sodipodi:ry="4"
       sodipodi:rx="4"
       sodipodi:cy="506.39252"
       sodipodi:cx="580.46796"
       cx="580.46796"
       cy="506.39252"
       rx="4"
       ry="4"
       style="fill:none;stroke:#0000b2;stroke-width:1;display:inline"
       id="ellipse3355"
       transform="translate(-38.357147,262.1677)" />
    <ellipse
       d="m 584.46796,506.39252 c 0,2.20914 -1.79086,4 -4,4 -2.20914,0 -4,-1.79086 -4,-4 0,-2.20914 1.79086,-4 4,-4 2.20914,0 4,1.79086 4,4 z"
       sodipodi:ry="4"
       sodipodi:rx="4"
       sodipodi:cy="506.39252"
       sodipodi:cx="580.46796"
       cx="580.46796"
       cy="506.39252"
       rx="4"
       ry="4"
       style="fill:none;stroke:#0000b2;stroke-width:1;display:inline"
       id="ellipse3321"
       transform="translate(-38.357147,262.1677)" />
  </g>
</svg>
