<?xml version="1.0" encoding="UTF-8" standalone="no"?>
<!-- Created with Inkscape (http://www.inkscape.org/) -->

<svg
   xmlns:dc="http://purl.org/dc/elements/1.1/"
   xmlns:cc="http://creativecommons.org/ns#"
   xmlns:rdf="http://www.w3.org/1999/02/22-rdf-syntax-ns#"
   xmlns:svg="http://www.w3.org/2000/svg"
   xmlns="http://www.w3.org/2000/svg"
   xmlns:sodipodi="http://sodipodi.sourceforge.net/DTD/sodipodi-0.dtd"
   xmlns:inkscape="http://www.inkscape.org/namespaces/inkscape"
   width="744.09448819"
   height="1052.3622047"
   id="svg2"
   version="1.1"
   inkscape:version="0.48.3.1 r9886"
   sodipodi:docname="special-case.svg">
  <sodipodi:namedview
     id="base"
     pagecolor="#ffffff"
     bordercolor="#666666"
     borderopacity="1.0"
     inkscape:pageopacity="0.0"
     inkscape:pageshadow="2"
     inkscape:zoom="0.35"
     inkscape:cx="-90.382464"
     inkscape:cy="489.00708"
     inkscape:document-units="px"
     inkscape:current-layer="layer4"
     showgrid="false"
     inkscape:window-width="1024"
     inkscape:window-height="678"
     inkscape:window-x="-2"
     inkscape:window-y="32"
     inkscape:window-maximized="1" />
  <defs
     id="defs4" />
  <metadata
     id="metadata7">
    <rdf:RDF>
      <cc:Work
         rdf:about="">
        <dc:format>image/svg+xml</dc:format>
        <dc:type
           rdf:resource="http://purl.org/dc/dcmitype/StillImage" />
        <dc:title></dc:title>
      </cc:Work>
    </rdf:RDF>
  </metadata>
  <g
     id="layer1"
     inkscape:groupmode="layer"
     inkscape:label="Layer 1" />
  <g
     style="display:inline"
     inkscape:label="ball"
     id="layer3"
     inkscape:groupmode="layer">
    <path
       transform="translate(-31.428571,-5.7142857)"
       sodipodi:end="5.3502973"
       sodipodi:start="4.4329663"
       d="m 323.81035,257.56317 a 281.42856,281.42856 0 0 1 245.21353,44.4296 L 401.42856,528.07648 z"
       sodipodi:ry="281.42856"
       sodipodi:rx="281.42856"
       sodipodi:cy="528.07648"
       sodipodi:cx="401.42856"
       id="path3198"
       style="fill:none;stroke:#000000;stroke-width:10;stroke-linecap:butt;stroke-linejoin:miter;stroke-miterlimit:4;stroke-opacity:1;stroke-dasharray:none"
       sodipodi:type="arc"
       inkscape:export-filename="/home/pekub1104/personal/pentagram/special-case.png"
       inkscape:export-xdpi="90"
       inkscape:export-ydpi="90" />
  </g>
  <g
     style="display:none"
     inkscape:label="hide2"
     id="layer5"
     inkscape:groupmode="layer" />
  <g
     inkscape:label="case"
     id="layer2"
     inkscape:groupmode="layer"
     style="display:inline">
    <g
       id="g4172"
       transform="translate(-54.28571,251.42857)"
       inkscape:export-filename="/home/pekub1104/personal/pentagram/special-case.png"
       inkscape:export-xdpi="90"
       inkscape:export-ydpi="90">
      <g
         word-spacing="normal"
         letter-spacing="normal"
         font-size-adjust="none"
         font-stretch="normal"
         font-weight="normal"
         font-variant="normal"
         font-style="normal"
         stroke-miterlimit="10.433"
         xml:space="preserve"
         transform="matrix(1.0629921,0,0,-1.0629921,-186.02362,789.27165)"
         id="content"
         style="font-style:normal;font-variant:normal;font-weight:normal;font-stretch:normal;letter-spacing:normal;word-spacing:normal;text-anchor:start;fill:none;stroke:#000000;stroke-linecap:butt;stroke-linejoin:miter;stroke-miterlimit:10.43299961;stroke-opacity:1;stroke-dasharray:none;stroke-dashoffset:0"><path
           id="path4175"
           d="m 478.19,431.11 0,0.31 -0.01,0.34 -0.02,0.36 -0.02,0.37 -0.03,0.39 -0.04,0.39 -0.04,0.41 -0.06,0.41 -0.07,0.42 -0.07,0.43 -0.09,0.42 -0.1,0.43 -0.12,0.42 -0.12,0.42 -0.14,0.41 -0.16,0.41 -0.17,0.4 -0.18,0.38 -0.2,0.37 -0.22,0.36 -0.23,0.34 -0.25,0.32 -0.28,0.3 -0.29,0.27 -0.31,0.25 -0.16,0.12 -0.17,0.1 -0.17,0.1 -0.18,0.1 -0.18,0.08 -0.19,0.08 -0.19,0.07 -0.2,0.06 -0.21,0.05 -0.21,0.05 -0.22,0.03 -0.22,0.02 -0.23,0.02 -0.23,0 -0.05,-1.09 c 2.44,0 2.73,-3.19 2.73,-6.03 0,-2.44 -0.39,-4.99 -1.59,-9.92 h -10.41 c 0.85,3.2 1.85,7.18 3.83,10.72 1.36,2.43 3.19,5.23 5.44,5.23 l 0.05,1.09 c -6.92,0 -14.6,-14.04 -14.6,-25.45 0,-4.69 1.44,-10.22 5.99,-10.22 v 1.1 c -1.66,0 -2.71,1.45 -2.71,6.07 0,2.1 0.3,4.99 1.6,9.86 h 10.37 c -0.54,-2.28 -1.59,-6.51 -3.5,-10.11 -1.73,-3.39 -3.62,-5.82 -5.76,-5.82 v -1.1 c 7.01,0 14.59,14.3 14.59,25.46 z"
           inkscape:connector-curvature="0"
           style="fill:#000000;stroke-width:0" /></g>    </g>
    <g
       id="g4364"
       transform="translate(60,68.571429)"
       inkscape:export-filename="/home/pekub1104/personal/pentagram/special-case.png"
       inkscape:export-xdpi="90"
       inkscape:export-ydpi="90">
      <g
         word-spacing="normal"
         letter-spacing="normal"
         font-size-adjust="none"
         font-stretch="normal"
         font-weight="normal"
         font-variant="normal"
         font-style="normal"
         stroke-miterlimit="10.433"
         xml:space="preserve"
         transform="matrix(1.0629921,0,0,-1.0629921,-186.02362,789.27165)"
         id="g4366"
         style="font-style:normal;font-variant:normal;font-weight:normal;font-stretch:normal;letter-spacing:normal;word-spacing:normal;text-anchor:start;fill:none;stroke:#000000;stroke-linecap:butt;stroke-linejoin:miter;stroke-miterlimit:10.43299961;stroke-opacity:1;stroke-dasharray:none;stroke-dashoffset:0"><path
           id="path4368"
           d="m 461.85,410.04 5.28,5.13 c 7.76,6.87 10.76,9.56 10.76,14.54 0,5.69 -4.48,9.68 -10.56,9.68 -5.64,0 -9.33,-4.6 -9.33,-9.03 0,-2.79 2.5,-2.79 2.64,-2.79 0.86,0 2.6,0.6 2.6,2.64 0,1.3 -0.89,2.6 -2.64,2.6 -0.39,0 -0.5,0 -0.64,-0.05 1.14,3.24 3.83,5.08 6.72,5.08 4.53,0 6.68,-4.05 6.68,-8.13 0,-3.98 -2.5,-7.92 -5.23,-11.01 l -9.56,-10.66 C 458,407.5 458,407.4 458,406.2 h 18.49 l 1.4,8.67 h -1.25 c -0.25,-1.5 -0.59,-3.69 -1.09,-4.44 -0.36,-0.39 -3.64,-0.39 -4.73,-0.39 z"
           inkscape:connector-curvature="0"
           style="fill:#000000;stroke-width:0" /><path
           id="path4370"
           d="m 511.43,431.11 0,0.31 -0.01,0.34 -0.02,0.36 -0.02,0.37 -0.03,0.39 -0.04,0.39 -0.04,0.41 -0.06,0.41 -0.07,0.42 -0.08,0.43 -0.08,0.42 -0.1,0.43 -0.12,0.42 -0.12,0.42 -0.14,0.41 -0.16,0.41 -0.17,0.4 -0.18,0.38 -0.2,0.37 -0.22,0.36 -0.23,0.34 -0.26,0.32 -0.27,0.3 -0.29,0.27 -0.31,0.25 -0.16,0.12 -0.17,0.1 -0.17,0.1 -0.18,0.1 -0.18,0.08 -0.19,0.08 -0.19,0.07 -0.2,0.06 -0.21,0.05 -0.21,0.05 -0.22,0.03 -0.22,0.02 -0.23,0.02 -0.23,0 -0.05,-1.09 c 2.44,0 2.73,-3.19 2.73,-6.03 0,-2.44 -0.39,-4.99 -1.59,-9.92 h -10.41 c 0.85,3.2 1.85,7.18 3.83,10.72 1.36,2.43 3.19,5.23 5.44,5.23 l 0.05,1.09 c -6.93,0 -14.6,-14.04 -14.6,-25.45 0,-4.69 1.44,-10.22 5.99,-10.22 v 1.1 c -1.66,0 -2.71,1.45 -2.71,6.07 0,2.1 0.3,4.99 1.6,9.86 h 10.37 c -0.55,-2.28 -1.59,-6.51 -3.5,-10.11 -1.73,-3.39 -3.62,-5.82 -5.76,-5.82 v -1.1 c 7.01,0 14.59,14.3 14.59,25.46 z"
           inkscape:connector-curvature="0"
           style="fill:#000000;stroke-width:0" /></g>    </g>
  </g>
  <g
     style="display:none"
     inkscape:label="hide"
     id="layer4"
     inkscape:groupmode="layer">
    <line
       id="line3094"
       style="display:inline;stroke:#000000;stroke-width:1.33961891999999994"
       y2="916.29865"
       x2="366.74249"
       y1="131.28198"
       x1="366.74249" />
    <line
       id="line3096"
       style="display:inline;stroke:#000000;stroke-width:1.33961891999999994"
       y2="523.79034"
       x2="761.93005"
       y1="523.79034"
       x1="-28.44508" />
    <line
       id="line3100"
       style="display:inline;stroke:#000000;stroke-width:1.33961891999999994"
       y2="529.1488"
       x2="-190.53897"
       y1="518.43182"
       x1="-190.53897" />
    <text
       id="text3098"
       style="display:inline;font-size:16.07542610000000138px;font-weight:normal;fill:#000000"
       y="555.94116"
       x="-203.93515">-2</text>
    <text
       id="text3102"
       style="display:inline;font-size:16.07542610000000138px;font-weight:normal;fill:#000000"
       y="555.94116"
       x="-78.010979">-1.5</text>
    <line
       id="line3108"
       style="display:inline;stroke:#000000;stroke-width:1.33961891999999994"
       y2="529.1488"
       x2="86.762146"
       y1="518.43182"
       x1="86.762146" />
    <text
       id="text3106"
       style="display:inline;font-size:16.07542610000000138px;font-weight:normal;fill:#000000"
       y="555.94116"
       x="73.365959">-1</text>
    <text
       id="text3110"
       style="display:inline;font-size:16.07542610000000138px;font-weight:normal;fill:#000000"
       y="555.94116"
       x="205.98824">-.5</text>
    <line
       id="line3112"
       style="display:inline;stroke:#000000;stroke-width:1.33961891999999994"
       y2="529.1488"
       x2="226.08252"
       y1="518.43182"
       x1="226.08252" />
    <text
       id="text3138"
       style="display:inline;font-size:16.07542610000000138px;font-weight:normal;fill:#000000"
       y="401.88501"
       x="333.25201">.5</text>
    <line
       id="line3140"
       style="display:inline;stroke:#000000;stroke-width:1.33961891999999994"
       y2="383.13034"
       x2="372.10098"
       y1="383.13034"
       x1="361.38403" />
    <line
       id="line3144"
       style="display:inline;stroke:#000000;stroke-width:1.33961891999999994"
       y2="243.80998"
       x2="372.10098"
       y1="243.80998"
       x1="361.38403" />
    <text
       id="text3142"
       style="display:inline;font-size:16.07542610000000138px;font-weight:normal;fill:#000000"
       y="262.56464"
       x="346.64822">1</text>
    <line
       id="line3116"
       style="display:inline;stroke:#000000;stroke-width:1.33961891999999994"
       y2="529.1488"
       x2="506.06287"
       y1="518.43182"
       x1="506.06287" />
    <text
       id="text3114"
       style="display:inline;font-size:16.07542610000000138px;font-weight:normal;fill:#000000"
       y="555.94116"
       x="492.66669">.5</text>
    <text
       id="text3118"
       style="display:inline;font-size:16.07542610000000138px;font-weight:normal;fill:#000000"
       y="555.94116"
       x="638.68512">1</text>
    <line
       id="line3120"
       style="display:inline;stroke:#000000;stroke-width:1.33961891999999994"
       y2="529.1488"
       x2="645.38324"
       y1="518.43182"
       x1="645.38324" />
    <text
       id="text3134"
       style="display:inline;font-size:16.07542610000000138px;font-weight:normal;fill:#000000"
       y="681.86536"
       x="319.85583">-.5</text>
    <line
       id="line3136"
       style="display:inline;stroke:#000000;stroke-width:1.33961891999999994"
       y2="663.11072"
       x2="372.10098"
       y1="663.11072"
       x1="361.38403" />
    <line
       id="line3132"
       style="display:inline;stroke:#000000;stroke-width:1.33961891999999994"
       y2="802.43103"
       x2="372.10098"
       y1="802.43103"
       x1="361.38403" />
    <text
       id="text3130"
       style="display:inline;font-size:16.07542610000000138px;font-weight:normal;fill:#000000"
       y="821.18573"
       x="333.25201">-1</text>
    <line
       id="line3128"
       style="display:inline;stroke:#000000;stroke-width:1.33961891999999994"
       y2="941.7514"
       x2="372.10098"
       y1="941.7514"
       x1="361.38403" />
    <text
       id="text3126"
       style="display:inline;font-size:16.07542610000000138px;font-weight:normal;fill:#000000"
       y="960.5061"
       x="306.45966">-1.5</text>
    <line
       id="line3104"
       style="display:inline;stroke:#000000;stroke-width:1.33961891999999994"
       y2="529.1488"
       x2="-51.218601"
       y1="518.43182"
       x1="-51.218601" />
    <line
       id="line3124"
       style="display:inline;stroke:#000000;stroke-width:1.33961891999999994"
       y2="1081.0718"
       x2="372.10098"
       y1="1081.0718"
       x1="361.38403" />
    <text
       id="text3122"
       style="display:inline;font-size:16.07542610000000138px;font-weight:normal;fill:#000000"
       y="1099.8264"
       x="333.25201">-2</text>
  </g>
  <g
     inkscape:groupmode="layer"
     id="layer7"
     inkscape:label="diag"
     style="display:inline">
    <g
       style="stroke-width:7;stroke-miterlimit:4;stroke-dasharray:none;display:inline"
       id="g4126"
       inkscape:export-filename="/home/pekub1104/personal/pentagram/special-case.png"
       inkscape:export-xdpi="90"
       inkscape:export-ydpi="90">
      <line
         x1="196.13902"
         y1="744.09717"
         x2="537.34595"
         y2="303.48349"
         style="stroke:#007c00;stroke-width:7;stroke-miterlimit:4;stroke-dasharray:none"
         id="line3148" />
      <line
         x1="366.74249"
         y1="523.79034"
         x2="292.8591"
         y2="255.12344"
         style="stroke:#007c00;stroke-width:7;stroke-miterlimit:4;stroke-dasharray:none"
         id="line3150" />
      <line
         x1="196.13902"
         y1="744.09717"
         x2="292.8591"
         y2="255.12344"
         style="stroke:#007c00;stroke-width:7;stroke-miterlimit:4;stroke-dasharray:none"
         id="line3152" />
    </g>
  </g>
  <g
     inkscape:groupmode="layer"
     id="layer6"
     inkscape:label="circle"
     style="display:inline">
    <ellipse
       transform="matrix(1.3396189,0,0,1.3396189,-28.445079,131.28199)"
       id="ellipse3146"
       style="fill:none;stroke:#007c7c;stroke-width:3.98620844;stroke-miterlimit:4;stroke-dasharray:none;display:inline"
       ry="208"
       rx="208"
       cy="293"
       cx="295"
       sodipodi:cx="295"
       sodipodi:cy="293"
       sodipodi:rx="208"
       sodipodi:ry="208"
       d="M 503,293 C 503,407.87523 409.87523,501 295,501 180.12477,501 87,407.87523 87,293 87,178.12477 180.12477,85 295,85 c 114.87523,0 208,93.12477 208,208 z"
       inkscape:export-filename="/home/pekub1104/personal/pentagram/special-case.png"
       inkscape:export-xdpi="90"
       inkscape:export-ydpi="90" />
  </g>
</svg>
